<svg width="32" height="32" viewBox="0 0 32 32" fill="none" xmlns="http://www.w3.org/2000/svg">
<path d="M7.5 3C6.30653 3 5.16193 3.47411 4.31802 4.31802C3.47411 5.16193 3 6.30653 3 7.5V24.5C3 25.6935 3.47411 26.8381 4.31802 27.682C5.16193 28.5259 6.30653 29 7.5 29H24.5C25.6935 29 26.8381 28.5259 27.682 27.682C28.5259 26.8381 29 25.6935 29 24.5V7.5C29 6.30653 28.5259 5.16193 27.682 4.31802C26.8381 3.47411 25.6935 3 24.5 3H7.5ZM27 9H5V7.5C5 6.83696 5.26339 6.20107 5.73223 5.73223C6.20107 5.26339 6.83696 5 7.5 5H24.5C25.163 5 25.7989 5.26339 26.2678 5.73223C26.7366 6.20107 27 6.83696 27 7.5V9ZM5 11H27V24.5C27 25.163 26.7366 25.7989 26.2678 26.2678C25.7989 26.7366 25.163 27 24.5 27H7.5C6.83696 27 6.20107 26.7366 5.73223 26.2678C5.26339 25.7989 5 25.163 5 24.5V11ZM21.5 18C21.1022 18 20.7206 17.842 20.4393 17.5607C20.158 17.2794 20 16.8978 20 16.5C20 16.1022 20.158 15.7206 20.4393 15.4393C20.7206 15.158 21.1022 15 21.5 15C21.8978 15 22.2794 15.158 22.5607 15.4393C22.842 15.7206 23 16.1022 23 16.5C23 16.8978 22.842 17.2794 22.5607 17.5607C22.2794 17.842 21.8978 18 21.5 18ZM20 21.5C20 21.8978 20.158 22.2794 20.4393 22.5607C20.7206 22.842 21.1022 23 21.5 23C21.8978 23 22.2794 22.842 22.5607 22.5607C22.842 22.2794 23 21.8978 23 21.5C23 21.1022 22.842 20.7206 22.5607 20.4393C22.2794 20.158 21.8978 20 21.5 20C21.1022 20 20.7206 20.158 20.4393 20.4393C20.158 20.7206 20 21.1022 20 21.5ZM16 23C15.6022 23 15.2206 22.842 14.9393 22.5607C14.658 22.2794 14.5 21.8978 14.5 21.5C14.5 21.1022 14.658 20.7206 14.9393 20.4393C15.2206 20.158 15.6022 20 16 20C16.3978 20 16.7794 20.158 17.0607 20.4393C17.342 20.7206 17.5 21.1022 17.5 21.5C17.5 21.8978 17.342 22.2794 17.0607 22.5607C16.7794 22.842 16.3978 23 16 23ZM14.5 16.5C14.5 16.8978 14.658 17.2794 14.9393 17.5607C15.2206 17.842 15.6022 18 16 18C16.3978 18 16.7794 17.842 17.0607 17.5607C17.342 17.2794 17.5 16.8978 17.5 16.5C17.5 16.1022 17.342 15.7206 17.0607 15.4393C16.7794 15.158 16.3978 15 16 15C15.6022 15 15.2206 15.158 14.9393 15.4393C14.658 15.7206 14.5 16.1022 14.5 16.5ZM10.5 18C10.1022 18 9.72064 17.842 9.43934 17.5607C9.15804 17.2794 9 16.8978 9 16.5C9 16.1022 9.15804 15.7206 9.43934 15.4393C9.72064 15.158 10.1022 15 10.5 15C10.8978 15 11.2794 15.158 11.5607 15.4393C11.842 15.7206 12 16.1022 12 16.5C12 16.8978 11.842 17.2794 11.5607 17.5607C11.2794 17.842 10.8978 18 10.5 18Z" fill="black"/>
</svg>
