<svg width="40" height="40" viewBox="0 0 40 40" fill="none" xmlns="http://www.w3.org/2000/svg">
<path fill-rule="evenodd" clip-rule="evenodd" d="M35.8285 16.4049C36.7618 19.2232 36.7352 22.2666 36.6702 24.8849L36.6668 25.0416C36.6558 25.4836 36.4696 25.9031 36.1492 26.2079C35.8288 26.5126 35.4005 26.6776 34.9585 26.6666C34.5165 26.6555 34.0969 26.4693 33.7922 26.149C33.4874 25.8286 33.3224 25.4003 33.3335 24.9582L33.3385 24.8032C33.4035 22.1416 33.3902 19.6499 32.6635 17.4532C32.1134 15.7974 31.2436 14.2657 30.1035 12.9449C27.7879 10.2759 24.5104 8.63136 20.9866 8.37032C17.4628 8.10927 13.9788 9.25291 11.2952 11.5516C9.96969 12.6861 8.88165 14.0715 8.09363 15.6281C7.3056 17.1846 6.83317 18.8817 6.70349 20.6216C6.61683 21.7749 6.63683 22.4549 6.66683 23.4182C6.68516 24.0382 6.70849 24.7766 6.70849 25.8332C6.70849 26.2753 6.5329 26.6992 6.22034 27.0117C5.90778 27.3243 5.48386 27.4999 5.04183 27.4999C4.5998 27.4999 4.17588 27.3243 3.86332 27.0117C3.55076 26.6992 3.37516 26.2753 3.37516 25.8332C3.37516 25.0149 3.35683 24.3432 3.33849 23.7249C3.30849 22.6116 3.28183 21.6766 3.38016 20.3749C3.54247 18.1979 4.13343 16.0745 5.11907 14.1267C6.1047 12.1789 7.46559 10.4451 9.12349 9.0249C12.4737 6.14554 16.83 4.71402 21.2352 5.0449C25.6382 5.37257 29.7329 7.42887 32.6252 10.7649C34.052 12.417 35.1404 14.3333 35.8285 16.4049Z" fill="#130902"/>
<path fill-rule="evenodd" clip-rule="evenodd" d="M15.0915 26.1649L15.5482 31.3816C15.6029 32.0046 15.5343 32.6323 15.3464 33.2288C15.1585 33.8254 14.8549 34.379 14.4529 34.8582C14.051 35.3374 13.5586 35.7327 13.0039 36.0215C12.4491 36.3103 11.8429 36.4871 11.2199 36.5416C9.39565 36.701 7.58279 36.1294 6.18004 34.9523C4.77729 33.7752 3.89955 32.0891 3.73987 30.2649L3.32321 25.5216C3.266 24.8674 3.33823 24.2083 3.53577 23.582C3.73332 22.9557 4.0523 22.3744 4.47451 21.8714C4.89673 21.3684 5.41389 20.9535 5.99647 20.6504C6.57906 20.3473 7.21564 20.162 7.86987 20.1049C9.63111 19.951 11.3814 20.503 12.7356 21.6394C14.0899 22.7759 14.9374 24.4037 15.0915 26.1649ZM8.15987 23.4249C7.71965 23.4635 7.31276 23.6753 7.02866 24.0137C6.74456 24.3522 6.60651 24.7897 6.64487 25.2299L7.06154 29.9749C7.14415 30.9181 7.59783 31.7898 8.32287 32.3986C9.04792 33.0074 9.98501 33.3034 10.9282 33.2216C11.1153 33.2054 11.2974 33.1526 11.464 33.066C11.6306 32.9794 11.7785 32.8608 11.8993 32.717C12.02 32.5732 12.1112 32.407 12.1677 32.2279C12.2241 32.0488 12.2447 31.8603 12.2282 31.6733L11.7715 26.4566C11.7336 26.0203 11.61 25.5958 11.408 25.2073C11.2059 24.8189 10.9292 24.474 10.5938 24.1924C10.2584 23.9109 9.87085 23.6982 9.45322 23.5665C9.03559 23.4348 8.59611 23.3867 8.15987 23.4249ZM36.2582 30.5016L36.7149 25.2849C36.7696 24.6619 36.701 24.0342 36.5131 23.4377C36.3251 22.8411 36.0215 22.2875 35.6196 21.8083C35.2177 21.3291 34.7253 20.9338 34.1705 20.645C33.6158 20.3562 33.0096 20.1794 32.3865 20.1249C30.5623 19.9655 28.7495 20.5371 27.3467 21.7142C25.944 22.8913 25.0662 24.5774 24.9065 26.4016L24.4899 31.1449C24.4327 31.7991 24.5049 32.4582 24.7024 33.0845C24.9 33.7108 25.219 34.2921 25.6412 34.7951C26.0634 35.2981 26.5806 35.713 27.1631 36.0161C27.7457 36.3192 28.3823 36.5045 29.0365 36.5616C30.7978 36.7155 32.548 36.1635 33.9023 35.0271C35.2566 33.8906 36.104 32.2628 36.2582 30.5016ZM29.3265 33.2416C28.8863 33.203 28.4794 32.9912 28.1953 32.6528C27.9112 32.3143 27.7732 31.8768 27.8115 31.4366L28.2282 26.6916C28.3108 25.7485 28.7645 24.8767 29.4895 24.2679C30.2146 23.6591 31.1517 23.3631 32.0949 23.4449C32.4722 23.4788 32.8208 23.6607 33.0644 23.9508C33.308 24.241 33.4268 24.6158 33.3949 24.9933L32.9382 30.2099C32.9002 30.6462 32.7767 31.0707 32.5746 31.4592C32.3726 31.8477 32.0959 32.1925 31.7605 32.4741C31.4251 32.7556 31.0375 32.9683 30.6199 33.1C30.2023 33.2317 29.7628 33.2798 29.3265 33.2416Z" fill="#130902"/>
</svg>
