<svg width="20" height="23" viewBox="0 0 20 23" fill="none" xmlns="http://www.w3.org/2000/svg">
<path d="M12 0.75C12 0.551088 12.079 0.360322 12.2197 0.21967C12.3603 0.0790176 12.5511 0 12.75 0L18.75 0C18.9489 0 19.1397 0.0790176 19.2803 0.21967C19.421 0.360322 19.5 0.551088 19.5 0.75V8.25C19.5 8.44891 19.421 8.63968 19.2803 8.78033C19.1397 8.92098 18.9489 9 18.75 9H16.5V21.75C16.5 21.9489 16.421 22.1397 16.2803 22.2803C16.1397 22.421 15.9489 22.5 15.75 22.5C15.5511 22.5 15.3603 22.421 15.2197 22.2803C15.079 22.1397 15 21.9489 15 21.75V9H12.75C12.5511 9 12.3603 8.92098 12.2197 8.78033C12.079 8.63968 12 8.44891 12 8.25V0.75ZM4.9785 3H10.5V4.5H4.9785C4.61387 4.49992 4.2617 4.63265 3.98783 4.87339C3.71397 5.11412 3.53717 5.44637 3.4905 5.808L3.078 9H10.6275C10.7827 9.43887 11.0701 9.81881 11.4503 10.0875C11.8304 10.3561 12.2845 10.5002 12.75 10.5H2.25C2.05109 10.5 1.86032 10.579 1.71967 10.7197C1.57902 10.8603 1.5 11.0511 1.5 11.25V15.75C1.5 15.9489 1.57902 16.1397 1.71967 16.2803C1.86032 16.421 2.05109 16.5 2.25 16.5H13.5V18H4.5V19.875C4.5 20.1734 4.38147 20.4595 4.1705 20.6705C3.95952 20.8815 3.67337 21 3.375 21C3.07663 21 2.79048 20.8815 2.5795 20.6705C2.36853 20.4595 2.25 20.1734 2.25 19.875V18C1.65326 18 1.08097 17.7629 0.65901 17.341C0.237053 16.919 2.45703e-08 16.3467 2.45703e-08 15.75V11.25C-7.00847e-05 10.7755 0.1499 10.313 0.428468 9.92886C0.707035 9.54469 1.09994 9.25842 1.551 9.111L1.566 9H0.75C0.551088 9 0.360322 8.92098 0.21967 8.78033C0.0790178 8.63968 2.45703e-08 8.44891 2.45703e-08 8.25C2.45703e-08 8.05109 0.0790178 7.86032 0.21967 7.71967C0.360322 7.57902 0.551088 7.5 0.75 7.5H1.7595L2.0025 5.616C2.09588 4.89249 2.44969 4.22779 2.99773 3.74628C3.54577 3.26478 4.25048 2.99947 4.98 3M13.125 12.3765C13.257 12.3765 13.3825 12.398 13.5015 12.441V14.559C13.3319 14.62 13.15 14.6392 12.9714 14.615C12.7928 14.5908 12.6226 14.5239 12.4753 14.42C12.328 14.3161 12.2079 14.1783 12.1252 14.0181C12.0424 13.858 11.9995 13.6803 12 13.5C12 12.879 12.5025 12.3765 13.1235 12.3765M6 13.5C6 13.6475 5.97094 13.7936 5.91448 13.9299C5.85802 14.0663 5.77526 14.1901 5.67093 14.2944C5.56661 14.3988 5.44275 14.4815 5.30645 14.538C5.17014 14.5944 5.02404 14.6235 4.8765 14.6235C4.72896 14.6235 4.58286 14.5944 4.44656 14.538C4.31025 14.4815 4.18639 14.3988 4.08207 14.2944C3.97774 14.1901 3.89498 14.0663 3.83852 13.9299C3.78206 13.7936 3.753 13.6475 3.753 13.5C3.753 13.202 3.87137 12.9163 4.08207 12.7056C4.29276 12.4949 4.57853 12.3765 4.8765 12.3765C5.17447 12.3765 5.46024 12.4949 5.67093 12.7056C5.88163 12.9163 6 13.202 6 13.5Z" fill="none" stroke="currentColor" stroke-width="1.5"/>
</svg>
