<svg width="96" height="96" viewBox="0 0 96 96" fill="none" xmlns="http://www.w3.org/2000/svg">
<path d="M28.5 71.376C39.2696 71.376 48 62.6456 48 51.876C48 41.1064 39.2696 32.376 28.5 32.376C17.7304 32.376 9 41.1064 9 51.876C9 62.6456 17.7304 71.376 28.5 71.376Z" stroke="white" stroke-width="2" stroke-linecap="round" stroke-linejoin="round"/>
<path d="M67.5 71.376C78.2696 71.376 87 62.6456 87 51.876C87 41.1064 78.2696 32.376 67.5 32.376C56.7304 32.376 48 41.1064 48 51.876C48 62.6456 56.7304 71.376 67.5 71.376Z" stroke="white" stroke-width="2" stroke-linecap="round" stroke-linejoin="round"/>
<path d="M28.5 58.034C31.901 58.034 34.658 55.277 34.658 51.876C34.658 48.475 31.901 45.718 28.5 45.718C25.0991 45.718 22.342 48.475 22.342 51.876C22.342 55.277 25.0991 58.034 28.5 58.034Z" stroke="white" stroke-width="2" stroke-linecap="round" stroke-linejoin="round"/>
<path d="M67.5 58.034C70.901 58.034 73.658 55.277 73.658 51.876C73.658 48.475 70.901 45.718 67.5 45.718C64.0991 45.718 61.342 48.475 61.342 51.876C61.342 55.277 64.0991 58.034 67.5 58.034Z" stroke="white" stroke-width="2" stroke-linecap="round" stroke-linejoin="round"/>
<path d="M21.458 32.376H9L14.716 38.092" stroke="white" stroke-width="2" stroke-linecap="round" stroke-linejoin="round"/>
<path d="M81.2841 38.092C70.9101 27.718 60.1921 24.626 48.0001 24.626C35.8101 24.626 25.0901 27.718 14.7161 38.09M53.7161 65.66L48.0001 71.376L42.2841 65.66" stroke="white" stroke-width="2" stroke-linecap="round" stroke-linejoin="round"/>
<path d="M74.542 32.376H87L81.284 38.092" stroke="white" stroke-width="2" stroke-linecap="round" stroke-linejoin="round"/>
</svg>
