<svg width="20" height="22" viewBox="0 0 20 22" fill="none" xmlns="http://www.w3.org/2000/svg">
<path d="M10.5 18V21M8.5 21H12.5" stroke="currentColor" stroke-width="1.5" stroke-linecap="round" stroke-linejoin="round"/>
<path d="M11.5 15C7.63401 15 4.5 11.866 4.5 8C4.5 4.13401 7.63401 1 11.5 1C15.366 1 18.5 4.13401 18.5 8C18.5 11.866 15.366 15 11.5 15Z" stroke="currentColor" stroke-width="1.5" stroke-linecap="round" stroke-linejoin="round"/>
<path d="M6.5 3C7.154 3.038 7.492 3.359 8.073 3.973C9.123 5.083 10.173 5.175 10.873 4.805C11.922 4.25 11.04 3.352 12.272 2.865C13.075 2.545 13.187 1.68 12.74 1M18 9C16.5 9 16.234 10.247 15 10C12.5 9.5 11.792 10.059 11.792 11.251C11.792 12.443 11.792 12.443 11.272 13.337C10.934 13.919 10.815 14.5 11.489 15" stroke="currentColor" stroke-width="1.5" stroke-linecap="round" stroke-linejoin="round"/>
<path d="M4.5 1C3.55039 1.91901 2.79541 3.0197 2.28001 4.23655C1.76462 5.45339 1.49935 6.76151 1.5 8.083C1.5 13.56 5.977 18 11.5 18C14.1142 18.0063 16.6269 16.9886 18.5 15.165" stroke="currentColor" stroke-width="1.5" stroke-linecap="round" stroke-linejoin="round"/>
</svg>