<svg width="96" height="96" viewBox="0 0 96 96" fill="none" xmlns="http://www.w3.org/2000/svg">
<path d="M28 68V40M84 32V64C84 69.3043 81.8929 74.3914 78.1421 78.1421C74.3914 81.8929 69.3043 84 64 84H32C26.6957 84 21.6086 81.8929 17.8579 78.1421C14.1071 74.3914 12 69.3043 12 64V32C12 26.6957 14.1071 21.6086 17.8579 17.8579C21.6086 14.1071 26.6957 12 32 12H64C69.3043 12 74.3914 14.1071 78.1421 17.8579C81.8929 21.6086 84 26.6957 84 32Z" stroke="white" stroke-width="3" stroke-linecap="round" stroke-linejoin="round"/>
<path d="M44 68V55M44 55V40M44 55C44 40 68 40 68 55V68M28 28.04L28.04 27.996" stroke="white" stroke-width="3" stroke-linecap="round" stroke-linejoin="round"/>
</svg>
