<svg width="20" height="20" viewBox="0 0 20 20" fill="none" stroke="currentColor" stroke-width="0.2" xmlns="http://www.w3.org/2000/svg">
<path d="M3.625 0.25C2.72989 0.25 1.87145 0.605579 1.23851 1.23851C0.605579 1.87145 0.25 2.72989 0.25 3.625V16.375C0.25 17.2701 0.605579 18.1285 1.23851 18.7615C1.87145 19.3944 2.72989 19.75 3.625 19.75H16.375C17.2701 19.75 18.1285 19.3944 18.7615 18.7615C19.3944 18.1285 19.75 17.2701 19.75 16.375V3.625C19.75 2.72989 19.3944 1.87145 18.7615 1.23851C18.1285 0.605579 17.2701 0.25 16.375 0.25H3.625ZM18.25 4.75H1.75V3.625C1.75 3.12772 1.94754 2.65081 2.29917 2.29917C2.65081 1.94754 3.12772 1.75 3.625 1.75H16.375C16.8723 1.75 17.3492 1.94754 17.7008 2.29917C18.0525 2.65081 18.25 3.12772 18.25 3.625V4.75ZM1.75 6.25H18.25V16.375C18.25 16.8723 18.0525 17.3492 17.7008 17.7008C17.3492 18.0525 16.8723 18.25 16.375 18.25H3.625C3.12772 18.25 2.65081 18.0525 2.29917 17.7008C1.94754 17.3492 1.75 16.8723 1.75 16.375V6.25ZM14.125 11.5C13.8266 11.5 13.5405 11.3815 13.3295 11.1705C13.1185 10.9595 13 10.6734 13 10.375C13 10.0766 13.1185 9.79048 13.3295 9.5795C13.5405 9.36853 13.8266 9.25 14.125 9.25C14.4234 9.25 14.7095 9.36853 14.9205 9.5795C15.1315 9.79048 15.25 10.0766 15.25 10.375C15.25 10.6734 15.1315 10.9595 14.9205 11.1705C14.7095 11.3815 14.4234 11.5 14.125 11.5ZM13 14.125C13 14.4234 13.1185 14.7095 13.3295 14.9205C13.5405 15.1315 13.8266 15.25 14.125 15.25C14.4234 15.25 14.7095 15.1315 14.9205 14.9205C15.1315 14.7095 15.25 14.4234 15.25 14.125C15.25 13.8266 15.1315 13.5405 14.9205 13.3295C14.7095 13.1185 14.4234 13 14.125 13C13.8266 13 13.5405 13.1185 13.3295 13.3295C13.1185 13.5405 13 13.8266 13 14.125ZM10 15.25C9.70163 15.25 9.41548 15.1315 9.2045 14.9205C8.99353 14.7095 8.875 14.4234 8.875 14.125C8.875 13.8266 8.99353 13.5405 9.2045 13.3295C9.41548 13.1185 9.70163 13 10 13C10.2984 13 10.5845 13.1185 10.7955 13.3295C11.0065 13.5405 11.125 13.8266 11.125 14.125C11.125 14.4234 11.0065 14.7095 10.7955 14.9205C10.5845 15.1315 10.2984 15.25 10 15.25ZM8.875 10.375C8.875 10.6734 8.99353 10.9595 9.2045 11.1705C9.41548 11.3815 9.70163 11.5 10 11.5C10.2984 11.5 10.5845 11.3815 10.7955 11.1705C11.0065 10.9595 11.125 10.6734 11.125 10.375C11.125 10.0766 11.0065 9.79048 10.7955 9.5795C10.5845 9.36853 10.2984 9.25 10 9.25C9.70163 9.25 9.41548 9.36853 9.2045 9.5795C8.99353 9.79048 8.875 10.0766 8.875 10.375ZM5.875 11.5C5.57663 11.5 5.29048 11.3815 5.0795 11.1705C4.86853 10.9595 4.75 10.6734 4.75 10.375C4.75 10.0766 4.86853 9.79048 5.0795 9.5795C5.29048 9.36853 5.57663 9.25 5.875 9.25C6.17337 9.25 6.45952 9.36853 6.6705 9.5795C6.88147 9.79048 7 10.0766 7 10.375C7 10.6734 6.88147 10.9595 6.6705 11.1705C6.45952 11.3815 6.17337 11.5 5.875 11.5Z" fill="currentColor"/>
</svg>
