<svg width="96" height="96" viewBox="0 0 96 96" fill="none" xmlns="http://www.w3.org/2000/svg">
<path d="M56 48L42 56V40L56 48Z" fill="white" stroke="white" stroke-width="3" stroke-linecap="round" stroke-linejoin="round"/>
<path d="M8 50.832V45.168C8 33.588 8 27.796 11.62 24.072C15.244 20.344 20.948 20.184 32.352 19.86C37.752 19.708 43.272 19.6 48 19.6C52.728 19.6 58.244 19.708 63.648 19.86C75.052 20.184 80.756 20.344 84.376 24.072C87.996 27.8 88 33.592 88 45.168V50.828C88 62.412 88 68.2 84.38 71.928C80.756 75.652 75.056 75.816 63.648 76.136C58.248 76.292 52.728 76.4 48 76.4C43.272 76.4 37.756 76.292 32.352 76.136C20.948 75.816 15.244 75.656 11.62 71.928C7.996 68.2 8 62.408 8 50.832Z" stroke="white" stroke-width="3"/>
</svg>
