<svg width="96" height="96" viewBox="0 0 96 96" fill="none" xmlns="http://www.w3.org/2000/svg">
<path d="M10 48C10 30.088 10 21.128 15.564 15.564C21.128 10 30.084 10 48 10C65.912 10 74.872 10 80.436 15.564C86 21.128 86 30.084 86 48C86 65.912 86 74.872 80.436 80.436C74.872 86 65.916 86 48 86C30.088 86 21.128 86 15.564 80.436C10 74.872 10 65.916 10 48Z" stroke="white" stroke-width="3" stroke-linecap="round" stroke-linejoin="round"/>
<path d="M70.032 26H69.992M66 48C66 52.7739 64.1036 57.3523 60.7279 60.7279C57.3523 64.1036 52.7739 66 48 66C43.2261 66 38.6477 64.1036 35.2721 60.7279C31.8964 57.3523 30 52.7739 30 48C30 43.2261 31.8964 38.6477 35.2721 35.2721C38.6477 31.8964 43.2261 30 48 30C52.7739 30 57.3523 31.8964 60.7279 35.2721C64.1036 38.6477 66 43.2261 66 48Z" stroke="white" stroke-width="3" stroke-linecap="round" stroke-linejoin="round"/>
</svg>
