<svg width="18" height="22" viewBox="0 0 18 22" fill="none" xmlns="http://www.w3.org/2000/svg">
    <path d="M1 9C1 5.229 1 3.343 2.172 2.172C3.344 1.001 5.229 1 9 1C12.771 1 14.657 1 15.828 2.172C16.999 3.344 17 5.229 17 9V11C17 14.771 17 16.657 15.828 17.828C14.656 18.999 12.771 19 9 19C5.229 19 3.343 19 2.172 17.828C1.001 16.656 1 14.771 1 11V9Z" stroke="currentColor" stroke-width="1.5"/>
    <path d="M1 12H17M12.5 15H14M4 15H5.5M4 19L3 21M14 19L15 21M7 1V1.5C7 2.03043 7.21071 2.53914 7.58579 2.91421C7.96086 3.28929 8.46957 3.5 9 3.5C9.53043 3.5 10.0391 3.28929 10.4142 2.91421C10.7893 2.53914 11 2.03043 11 1.5V1" stroke="currentColor" stroke-width="1.5" stroke-linecap="round" stroke-linejoin="round"/>
</svg>