<svg width="24" height="24" viewBox="0 0 24 24" fill="currentColor" stroke="currentColor" xmlns="http://www.w3.org/2000/svg">
<path d="M21.3554 4.93311L12.3554 1.93311C12.1249 1.85531 11.8752 1.85531 11.6447 1.93311L2.64473 4.93311C2.42998 5.00423 2.24166 5.13845 2.10436 5.31823C1.96705 5.49802 1.88714 5.71502 1.87504 5.94092C1.87401 5.96059 1.87401 5.98031 1.87504 5.99998V13.5C1.87504 13.7984 1.99357 14.0845 2.20455 14.2955C2.41553 14.5065 2.70167 14.625 3.00004 14.625C3.29841 14.625 3.58456 14.5065 3.79554 14.2955C4.00652 14.0845 4.12504 13.7984 4.12504 13.5V7.56092L6.34786 8.30155C5.658 9.62201 5.453 11.1426 5.76853 12.5986C6.08405 14.0546 6.90013 15.3539 8.07473 16.2703C6.53763 17.0283 5.23676 18.1917 4.31254 19.635C4.22932 19.7587 4.17151 19.8977 4.14247 20.0439C4.11344 20.1902 4.11377 20.3407 4.14343 20.4868C4.17309 20.6329 4.2315 20.7717 4.31526 20.895C4.39902 21.0184 4.50647 21.1238 4.63134 21.2053C4.75622 21.2867 4.89604 21.3425 5.04268 21.3695C5.18932 21.3964 5.33985 21.3939 5.48552 21.3622C5.63119 21.3304 5.7691 21.2701 5.89123 21.1845C6.01335 21.099 6.11726 20.9901 6.19692 20.864C7.53473 18.8053 9.65629 17.625 12 17.625C14.3438 17.625 16.4654 18.8053 17.8079 20.864C17.8875 20.9901 17.9914 21.099 18.1135 21.1845C18.2357 21.2701 18.3736 21.3304 18.5193 21.3622C18.6649 21.3939 18.8155 21.3964 18.9621 21.3695C19.1087 21.3425 19.2486 21.2867 19.3734 21.2053C19.4983 21.1238 19.6057 21.0184 19.6895 20.895C19.7733 20.7717 19.8317 20.6329 19.8613 20.4868C19.891 20.3407 19.8913 20.1902 19.8623 20.0439C19.8333 19.8977 19.7755 19.7587 19.6922 19.635C18.7671 18.19 17.4645 17.0255 15.9254 16.2675C17.1 15.3511 17.916 14.0518 18.2316 12.5958C18.5471 11.1398 18.3421 9.6192 17.6522 8.29873L21.3554 7.06405C21.5791 6.9892 21.7736 6.84592 21.9114 6.65447C22.0493 6.46301 22.1234 6.23308 22.1234 5.99717C22.1234 5.76127 22.0493 5.53133 21.9114 5.33988C21.7736 5.14842 21.5791 5.00514 21.3554 4.9303V4.93311ZM12 4.18311L17.4422 5.99998L12 7.81405L6.56254 5.99998L12 4.18311ZM16.125 11.25C16.1252 11.8907 15.976 12.5226 15.6895 13.0957C15.4029 13.6688 14.9868 14.1672 14.4741 14.5515C13.9614 14.9358 13.3662 15.1953 12.7358 15.3096C12.1054 15.4239 11.457 15.3897 10.842 15.2099C10.2271 15.03 9.66246 14.7093 9.19297 14.2733C8.72349 13.8373 8.36203 13.2979 8.13724 12.698C7.91245 12.098 7.83052 11.4538 7.89795 10.8167C7.96537 10.1795 8.18029 9.56683 8.52567 9.02717L11.6447 10.0669C11.8753 10.1443 12.1248 10.1443 12.3554 10.0669L15.4744 9.02717C15.8998 9.69044 16.1257 10.462 16.125 11.25Z" fill="currentColor" stroke="currentColor" stroke-width="0.4"/>
</svg>
