<svg width="96" height="96" viewBox="0 0 96 96" fill="none" xmlns="http://www.w3.org/2000/svg">
<path d="M48 10.5C40.5832 10.5 33.333 12.6993 27.1661 16.8199C20.9993 20.9404 16.1928 26.7971 13.3545 33.6494C10.5162 40.5016 9.77362 48.0416 11.2206 55.3159C12.6675 62.5902 16.239 69.272 21.4835 74.5165C26.728 79.761 33.4098 83.3325 40.6841 84.7794C47.9584 86.2264 55.4984 85.4838 62.3506 82.6455C69.2029 79.8072 75.0596 75.0007 79.1801 68.8339C83.3007 62.667 85.5 55.4168 85.5 48C85.4891 38.0577 81.5347 28.5258 74.5045 21.4956C67.4742 14.4653 57.9423 10.5109 48 10.5ZM49.5 82.4662V55.5H60C60.3978 55.5 60.7794 55.342 61.0607 55.0607C61.342 54.7794 61.5 54.3978 61.5 54C61.5 53.6022 61.342 53.2206 61.0607 52.9393C60.7794 52.658 60.3978 52.5 60 52.5H49.5V42C49.5 40.0109 50.2902 38.1032 51.6967 36.6967C53.1032 35.2902 55.0109 34.5 57 34.5H63C63.3978 34.5 63.7794 34.342 64.0607 34.0607C64.342 33.7794 64.5 33.3978 64.5 33C64.5 32.6022 64.342 32.2206 64.0607 31.9393C63.7794 31.658 63.3978 31.5 63 31.5H57C54.2152 31.5 51.5445 32.6062 49.5754 34.5754C47.6063 36.5445 46.5 39.2152 46.5 42V52.5H36C35.6022 52.5 35.2207 52.658 34.9394 52.9393C34.6581 53.2206 34.5 53.6022 34.5 54C34.5 54.3978 34.6581 54.7794 34.9394 55.0607C35.2207 55.342 35.6022 55.5 36 55.5H46.5V82.4662C37.4885 82.0741 28.9889 78.1682 22.8222 71.5855C16.6555 65.0027 13.312 56.2666 13.5082 47.2487C13.7043 38.2308 17.4244 29.6483 23.8715 23.3399C30.3186 17.0315 38.98 13.4989 48 13.4989C57.0201 13.4989 65.6814 17.0315 72.1285 23.3399C78.5756 29.6483 82.2957 38.2308 82.4919 47.2487C82.688 56.2666 79.3446 65.0027 73.1778 71.5855C67.0111 78.1682 58.5115 82.0741 49.5 82.4662Z" fill="white"/>
</svg>
