<svg width="18" height="18" viewBox="0 0 18 18" fill="none" stroke="currentColor" xmlns="http://www.w3.org/2000/svg">
<path d="M4.80012 3.56989C5.91786 2.47451 7.42272 1.86449 8.98769 1.87239C10.5527 1.88029 12.0513 2.50548 13.1579 3.6121C14.2645 4.71872 14.8897 6.21734 14.8976 7.78231C14.9055 9.34729 14.2955 10.8521 13.2001 11.9699L10.0606 15.1094C9.77933 15.3906 9.39786 15.5486 9.00012 15.5486C8.60237 15.5486 8.22091 15.3906 7.93962 15.1094L4.80012 11.9699C3.68628 10.8559 3.06055 9.34517 3.06055 7.76989C3.06055 6.19461 3.68628 4.68384 4.80012 3.56989Z" stroke="#130902" stroke-width="1.5" stroke-linejoin="round"/>
<path d="M9 10.0198C10.2426 10.0198 11.25 9.01242 11.25 7.76977C11.25 6.52713 10.2426 5.51978 9 5.51978C7.75736 5.51978 6.75 6.52713 6.75 7.76977C6.75 9.01242 7.75736 10.0198 9 10.0198Z" stroke="#130902" stroke-width="1.5" stroke-linecap="round" stroke-linejoin="round"/>
</svg>
