<svg width="56" height="56" viewBox="0 0 56 56" fill="none" xmlns="http://www.w3.org/2000/svg">
<path d="M21 15.491V47.8333M35 7V39.6667M7 20.3233C7 16.884 7 15.1667 7.917 14.1633C8.24154 13.8064 8.63635 13.5204 9.07667 13.3233C10.318 12.7727 11.949 13.3163 15.211 14.4037C17.7007 15.2343 18.9443 15.6497 20.2043 15.6053C20.6666 15.5901 21.1261 15.5292 21.5763 15.4233C22.8013 15.1317 23.8933 14.4037 26.0773 12.95L29.302 10.7987C32.102 8.932 33.4997 7.99867 35.105 7.78633C36.7103 7.56933 38.3063 8.10133 41.496 9.16533L44.2143 10.0707C46.5243 10.8407 47.6793 11.2257 48.3397 12.1427C49 13.0597 49 14.28 49 16.7113V35.679C49 39.116 49 40.8357 48.083 41.839C47.758 42.1942 47.3632 42.4786 46.9233 42.6743C45.682 43.2273 44.051 42.6837 40.789 41.5963C38.2993 40.7657 37.0557 40.3503 35.7957 40.3947C35.3334 40.4099 34.8739 40.4708 34.4237 40.5767C33.1987 40.8683 32.1067 41.5963 29.9227 43.05L26.698 45.2013C23.898 47.068 22.5003 48.0013 20.895 48.2137C19.2897 48.4307 17.6937 47.8987 14.504 46.8347L11.7857 45.9293C9.47567 45.1593 8.32067 44.7743 7.66033 43.8573C7 42.9403 7 41.72 7 39.2887V20.3233Z" stroke="#3E1E08" stroke-width="1.5"/>
</svg>
